<svg width="207" height="59" viewBox="0 0 207 59" fill="none" xmlns="http://www.w3.org/2000/svg">
<path d="M29.5 0C25.6261 0 21.7899 0.763123 18.2108 2.24554C14.6317 3.72813 11.3797 5.90101 8.6403 8.6403C5.90101 11.3797 3.72813 14.6317 2.24554 18.2108C0.763123 21.7899 0 25.6261 0 29.5C0 33.3739 0.763123 37.2101 2.24554 40.7892C3.72813 44.3683 5.90101 47.6203 8.6403 50.3597C11.3797 53.099 14.6317 55.2719 18.2108 56.7545C21.7899 58.2369 25.6261 59 29.5 59V44.25C27.5629 44.25 25.6449 43.8685 23.8554 43.1271C22.0658 42.3859 20.4398 41.2995 19.0702 39.9298C17.7005 38.5602 16.6141 36.9342 15.8729 35.1446C15.1315 33.3551 14.75 31.4371 14.75 29.5C14.75 27.5629 15.1315 25.6449 15.8729 23.8554C16.6141 22.0658 17.7005 20.4398 19.0702 19.0702C20.4398 17.7005 22.0658 16.6141 23.8554 15.8729C25.6449 15.1315 27.5629 14.75 29.5 14.75V0Z" fill="#0F52FF"/>
<path d="M29.5 39.3333C34.9308 39.3333 39.3333 34.9308 39.3333 29.5C39.3333 24.0692 34.9308 19.6667 29.5 19.6667C24.0692 19.6667 19.6667 24.0692 19.6667 29.5C19.6667 34.9308 24.0692 39.3333 29.5 39.3333Z" fill="#0F52FF"/>
<path d="M0 29.5C0 33.3739 0.763123 37.2101 2.24554 40.7892C3.72813 44.3683 5.90101 47.6203 8.6403 50.3597C11.3797 53.099 14.6317 55.2719 18.2108 56.7545C21.7899 58.2369 25.6261 59 29.5 59C33.3739 59 37.2101 58.2369 40.7892 56.7545C44.3683 55.2719 47.6203 53.099 50.3597 50.3597C53.099 47.6203 55.2719 44.3683 56.7545 40.7892C58.2369 37.2101 59 33.3739 59 29.5H44.25C44.25 31.4371 43.8685 33.3551 43.1271 35.1446C42.3859 36.9342 41.2995 38.5602 39.9298 39.9298C38.5602 41.2995 36.9342 42.3859 35.1446 43.1271C33.3551 43.8685 31.4371 44.25 29.5 44.25C27.5629 44.25 25.6449 43.8685 23.8554 43.1271C22.0658 42.3859 20.4398 41.2995 19.0702 39.9298C17.7005 38.5602 16.6141 36.9342 15.8729 35.1446C15.1315 33.3551 14.75 31.4371 14.75 29.5H0Z" fill="#5BD0F4"/>
<path d="M39.3334 29.5001C39.3334 26.8922 38.2974 24.3911 36.4534 22.5469C34.6092 20.7027 32.1081 19.6667 29.5001 19.6667C26.8922 19.6667 24.3911 20.7027 22.5469 22.5469C20.7027 24.3911 19.6667 26.8922 19.6667 29.5001H29.5001H39.3334Z" fill="#5BD0F4"/>
<path d="M74.4066 18.4164H70.7427V38.7714H74.4066V18.4164Z" fill="#0F52FF"/>
<path d="M76.7992 31.5604C76.7992 36.2711 80.056 39.179 84.3597 39.179C88.6633 39.179 91.9201 36.2711 91.9201 31.5604C91.9201 26.8497 88.6633 23.9418 84.3597 23.9418C80.056 23.9418 76.7992 26.8497 76.7992 31.5604ZM80.4631 31.5604C80.4631 28.7689 82.0915 27.1405 84.3597 27.1405C86.6278 27.1405 88.2562 28.7689 88.2562 31.5604C88.2562 34.352 86.6278 35.9804 84.3597 35.9804C82.0915 35.9804 80.4631 34.352 80.4631 31.5604Z" fill="#0F52FF"/>
<path d="M105.013 24.3489V26.2971H104.722C103.85 25.0468 102.454 23.9418 99.9533 23.9418C96.5221 23.9418 93.4397 26.8497 93.4397 31.3278C93.4397 35.8059 96.5221 38.7137 99.9533 38.7137C102.454 38.7137 103.85 37.5796 104.664 36.4456H104.955V37.8414C104.955 40.6329 103.326 41.9124 100.942 41.9124C98.5575 41.9124 97.3362 40.6329 96.8418 38.9754L93.556 40.4003C94.3121 42.5811 96.522 44.9947 101 44.9947C105.595 44.9947 108.619 42.5811 108.619 37.9285V24.3489H105.013ZM101.058 35.5733C98.7902 35.5733 97.1036 33.9449 97.1036 31.3278C97.1036 28.7107 98.7902 27.0823 101.058 27.0823C103.326 27.0823 105.013 28.7107 105.013 31.3278C105.013 33.9449 103.326 35.5733 101.058 35.5733Z" fill="#0F52FF"/>
<path d="M110.989 31.5604C110.989 36.2711 114.246 39.179 118.55 39.179C122.853 39.179 126.11 36.2711 126.11 31.5604C126.11 26.8497 122.853 23.9418 118.55 23.9418C114.246 23.9418 110.989 26.8497 110.989 31.5604ZM114.653 31.5604C114.653 28.7689 116.282 27.1405 118.55 27.1405C120.818 27.1405 122.446 28.7689 122.446 31.5604C122.446 34.352 120.818 35.9804 118.55 35.9804C116.282 35.9804 114.653 34.352 114.653 31.5604Z" fill="#0F52FF"/>
<path d="M128.986 20.161C128.986 21.6441 130.121 22.6618 131.575 22.6618C133.028 22.6618 134.163 21.6441 134.163 20.161C134.163 18.6781 133.028 17.6603 131.575 17.6603C130.121 17.6603 128.986 18.6781 128.986 20.161ZM133.406 24.3483H129.743V38.7713H133.406V24.3483Z" fill="#5BD0F4"/>
<path d="M136.671 44.5876H140.336V36.9109H140.626C141.44 38.074 142.836 39.179 145.337 39.179C148.768 39.179 151.851 36.2711 151.851 31.5604C151.851 26.8497 148.768 23.9418 145.337 23.9418C142.836 23.9418 141.44 25.0468 140.568 26.2973H140.277V24.3489H136.671V44.5876ZM144.231 36.0385C141.964 36.0385 140.277 34.4101 140.277 31.5604C140.277 28.7107 141.964 27.0823 144.231 27.0823C146.5 27.0823 148.186 28.7107 148.186 31.5604C148.186 34.4101 146.5 36.0385 144.231 36.0385Z" fill="#5BD0F4"/>
<path d="M153.989 28.3909C153.989 31.2406 156.372 32.2875 159.396 32.869L160.153 33.0143C161.955 33.3633 162.769 33.7996 162.769 34.7301C162.769 35.6606 161.955 36.3875 160.27 36.3875C158.582 36.3875 157.217 35.6896 156.837 33.5959L153.464 34.4683C153.96 37.4924 156.489 39.179 160.27 39.179C163.933 39.179 166.318 37.4635 166.318 34.4393C166.318 31.4149 163.875 30.6009 160.619 29.9612L159.862 29.8157C158.35 29.5249 157.535 29.1178 157.535 28.1583C157.535 27.286 158.292 26.7334 159.688 26.7334C161.084 26.7334 162.072 27.3149 162.421 28.8852L165.736 27.8675C165.038 25.5412 162.916 23.9418 159.688 23.9418C156.256 23.9418 153.989 25.5412 153.989 28.3909Z" fill="#5BD0F4"/>
<path d="M182.775 38.7714V24.3484H179.112V31.7925C179.112 34.4677 177.804 36.038 175.564 36.038C173.586 36.038 172.482 34.9621 172.482 32.7812V24.3484H168.817V32.9556C168.817 36.5324 171.058 39.004 174.431 39.004C177.076 39.004 178.298 37.8408 178.879 36.6195H179.169V38.7714H182.775Z" fill="#5BD0F4"/>
<path d="M186.025 24.3486V38.7716H189.69V30.1643C189.69 28.187 190.621 27.082 192.306 27.082C193.761 27.082 194.633 27.8962 194.633 29.4664V38.7716H198.297V30.1643C198.297 28.187 199.228 27.082 200.914 27.082C202.368 27.082 203.24 27.8962 203.24 29.4664V38.7716H206.905V29.292C206.905 25.8025 204.752 24.116 202.077 24.116C199.722 24.116 198.646 25.1628 197.948 26.3841H197.657C196.988 25.0175 195.796 24.116 193.702 24.116C191.609 24.116 190.474 25.0465 189.923 26.1515H189.631V24.3486H186.025Z" fill="#5BD0F4"/>
</svg>
