<svg width="295" height="59" viewBox="0 0 295 59" fill="none" xmlns="http://www.w3.org/2000/svg">
<path d="M41.8181 48.8306L2.33861 21.5977C-1.66215 18.8381 -0.302154 13.0922 4.6867 11.741L46.6463 0.352723C47.5351 0.0320001 48.4876 -0.0721106 49.4248 0.0490339C50.3619 0.170178 51.2566 0.513083 52.0347 1.04929C52.8127 1.58549 53.4517 2.29953 53.8985 3.13215C54.3453 3.96476 54.5871 4.89194 54.6038 5.83672L52.1171 44.4557C51.8222 49.0397 45.8188 51.5902 41.8181 48.8306Z" fill="#E9327C"/>
<path d="M29.2964 55.5531L6.03784 10.0681C5.50618 9.02755 5.27222 7.86037 5.36177 6.69528C5.45132 5.5302 5.86089 4.41247 6.54532 3.46538C7.22975 2.51828 8.16245 1.7786 9.24056 1.32792C10.3187 0.87723 11.5003 0.733045 12.6552 0.911259L55.7591 7.56379C56.7515 7.71697 57.6933 8.10351 58.5072 8.69164C59.3211 9.27976 59.9838 10.0527 60.4407 10.9468C60.8977 11.841 61.1359 12.8308 61.1357 13.8349C61.1356 14.8391 60.8971 15.8288 60.4398 16.7228L40.5835 55.5553C40.0503 56.5929 39.2414 57.4634 38.2456 58.0711C37.2498 58.6788 36.1058 59.0002 34.9393 59C33.7727 58.9998 32.6288 58.6779 31.6333 58.0698C30.6378 57.4617 29.8292 56.5909 29.2964 55.5531Z" fill="#1DACE3"/>
<path d="M54.4982 7.36843L33.0111 4.05206L6.62985 11.2151L17.1599 31.8153L41.8181 48.8307C42.3621 49.2018 42.9605 49.4862 43.5918 49.6735L52.9577 31.3576L54.4982 7.36843Z" fill="#3A68B8"/>
<path d="M163.335 12.6849C163.335 11.8862 163.572 11.1055 164.016 10.4414C164.459 9.77734 165.09 9.25975 165.828 8.95411C166.566 8.64847 167.378 8.56851 168.161 8.72432C168.944 8.88014 169.664 9.26474 170.229 9.82949C170.793 10.3942 171.178 11.1138 171.334 11.8971C171.49 12.6804 171.41 13.4924 171.104 14.2302C170.798 14.9681 170.281 15.5988 169.617 16.0425C168.953 16.4862 168.172 16.7231 167.373 16.7231C166.306 16.7122 165.285 16.2832 164.53 15.5283C163.775 14.7733 163.346 13.7525 163.335 12.6849ZM164.009 18.6971H170.74V41.1304H164.009V18.6971Z" fill="white"/>
<path d="M199.811 29.9139C199.889 31.3967 199.673 32.8803 199.176 34.2795C198.679 35.6786 197.91 36.9656 196.913 38.0666C195.917 39.1675 194.713 40.0605 193.37 40.6944C192.027 41.3282 190.572 41.6904 189.089 41.7599C187.841 41.8279 186.594 41.6174 185.438 41.144C184.282 40.6705 183.245 39.9458 182.404 39.0223V50.1048H175.674V18.6972H182.404V20.8055C183.245 19.8824 184.282 19.1581 185.438 18.685C186.595 18.2119 187.842 18.0019 189.089 18.0701C190.572 18.1394 192.027 18.5012 193.37 19.1348C194.712 19.7685 195.917 20.6613 196.913 21.7621C197.91 22.8628 198.679 24.1497 199.176 25.5487C199.673 26.9477 199.889 28.4312 199.811 29.9139ZM193.081 29.9139C193.055 28.8636 192.719 27.8444 192.116 26.9839C191.513 26.1233 190.67 25.4597 189.692 25.076C188.714 24.6924 187.645 24.6057 186.617 24.8269C185.59 25.048 184.651 25.5672 183.918 26.3195C183.184 27.0717 182.689 28.0236 182.494 29.0559C182.299 30.0883 182.412 31.1553 182.82 32.1234C183.229 33.0915 183.913 33.9176 184.789 34.4985C185.664 35.0794 186.692 35.3892 187.742 35.3891C188.464 35.4216 189.184 35.3011 189.856 35.0356C190.527 34.7701 191.135 34.3655 191.639 33.8484C192.143 33.3314 192.532 32.7135 192.781 32.0354C193.029 31.3573 193.132 30.6343 193.081 29.9139Z" fill="white"/>
<path d="M220.583 34.3966C220.583 39.5571 216.096 41.7556 211.25 41.7556C209.292 41.9327 207.327 41.5184 205.607 40.5662C203.888 39.6141 202.493 38.1678 201.605 36.4146L207.436 33.0961C207.673 33.9065 208.181 34.6109 208.876 35.0916C209.57 35.5722 210.408 35.8 211.25 35.7368C212.865 35.7368 213.671 35.2417 213.671 34.346C213.671 31.8769 202.634 33.1797 202.634 25.4158C202.634 20.526 206.761 18.0591 211.437 18.0591C213.191 18.004 214.928 18.4203 216.466 19.2644C218.005 20.1085 219.289 21.3497 220.185 22.8587L214.443 25.955C214.192 25.3661 213.773 24.8642 213.238 24.512C212.704 24.1598 212.077 23.9728 211.437 23.9744C210.271 23.9744 209.553 24.4145 209.553 25.231C209.547 27.8057 220.583 26.1002 220.583 34.3966Z" fill="white"/>
<path d="M245.179 18.6968V41.1301H238.45V39.0175C237.672 39.9482 236.685 40.6814 235.57 41.1573C234.455 41.6331 233.242 41.838 232.033 41.7551C227.501 41.7551 223.644 38.5246 223.644 32.4662V18.6968H230.373V31.4847C230.317 32.0194 230.377 32.56 230.551 33.0689C230.724 33.5778 231.007 34.0427 231.378 34.4313C231.75 34.8199 232.202 35.1228 232.703 35.3189C233.203 35.515 233.741 35.5997 234.277 35.5669C236.744 35.5669 238.458 34.1321 238.458 30.9456V18.6968H245.179Z" fill="white"/>
<path d="M283.752 27.3538V41.1298H277.022V27.9392C277.022 25.6967 275.944 24.2597 273.792 24.2597C271.547 24.2597 270.293 25.831 270.293 28.4784V41.1298H263.561V27.9392C263.561 25.6967 262.485 24.2597 260.331 24.2597C258.088 24.2597 256.832 25.831 256.832 28.4784V41.1298H250.102V18.6965H256.842V20.7519C257.54 19.8367 258.456 19.1108 259.506 18.6407C260.556 18.1705 261.707 17.9711 262.855 18.0605C264.007 18.0042 265.153 18.2472 266.184 18.7659C267.214 19.2847 268.092 20.0614 268.733 21.0204C269.478 20.017 270.467 19.2191 271.605 18.7015C272.743 18.1838 273.993 17.9633 275.24 18.0605C280.389 18.0693 283.752 21.7466 283.752 27.3538Z" fill="white"/>
<path d="M289.454 18.5582C292.213 18.5582 294.449 16.3216 294.449 13.5627C294.449 10.8038 292.213 8.56726 289.454 8.56726C286.695 8.56726 284.458 10.8038 284.458 13.5627C284.458 16.3216 286.695 18.5582 289.454 18.5582Z" fill="white"/>
<path d="M71.4542 8.37811H78.1859V41.1302H71.4542V8.37811ZM81.9974 29.9136C81.99 27.5617 82.6807 25.2605 83.9819 23.3013C85.2832 21.3422 87.1365 19.8132 89.3073 18.9081C91.478 18.0029 93.8686 17.7622 96.1762 18.2165C98.4838 18.6708 100.605 19.7996 102.27 21.4601C103.936 23.1205 105.072 25.2378 105.533 27.544C105.995 29.8502 105.762 32.2415 104.863 34.4151C103.965 36.5887 102.442 38.4468 100.487 39.7543C98.5318 41.0617 96.2328 41.7596 93.8809 41.7596C92.3188 41.7763 90.7691 41.4816 89.3223 40.8927C87.8754 40.3037 86.5604 39.4324 85.454 38.3295C84.3477 37.2267 83.4722 35.9144 82.8787 34.4694C82.2852 33.0244 81.9856 31.4757 81.9974 29.9136ZM99.048 29.9136C99.0216 28.899 98.6966 27.9148 98.1138 27.084C97.5309 26.2532 96.716 25.6127 95.7711 25.2427C94.8261 24.8726 93.793 24.7893 92.8009 25.0034C91.8089 25.2174 90.902 25.7192 90.1937 26.4459C89.4853 27.1727 89.007 28.0922 88.8185 29.0894C88.63 30.0866 88.7398 31.1172 89.134 32.0524C89.5282 32.9876 90.1894 33.7857 91.0349 34.3471C91.8804 34.9084 92.8726 35.208 93.8875 35.2083C94.5824 35.2281 95.2739 35.1037 95.9184 34.843C96.5629 34.5822 97.1463 34.1908 97.632 33.6933C98.1177 33.1959 98.495 32.6032 98.7402 31.9527C98.9855 31.3021 99.0932 30.6078 99.0568 29.9136H99.048ZM132.606 18.6903V40.0035C132.606 47.5407 126.728 50.725 120.762 50.725C118.662 50.8835 116.559 50.4608 114.683 49.5032C112.807 48.5455 111.231 47.09 110.128 45.296L115.87 41.9753C116.333 42.9115 117.071 43.684 117.986 44.1894C118.9 44.6947 119.947 44.9088 120.986 44.8031C121.649 44.8937 122.325 44.8342 122.962 44.6289C123.599 44.4237 124.182 44.078 124.668 43.6173C125.154 43.1566 125.53 42.5928 125.769 41.9673C126.008 41.3418 126.103 40.6707 126.048 40.0035V37.9393C125.259 38.9033 124.256 39.6692 123.118 40.1756C121.981 40.6819 120.74 40.9147 119.496 40.8551C116.535 40.7631 113.726 39.5221 111.664 37.395C109.602 35.2679 108.449 32.4217 108.449 29.4591C108.449 26.4966 109.602 23.6504 111.664 21.5233C113.726 19.3961 116.535 18.1551 119.496 18.0631C120.74 18.0036 121.981 18.2364 123.118 18.7427C124.256 19.2491 125.259 20.015 126.048 20.979V18.6903H132.606ZM126.056 29.458C126.101 28.3745 125.82 27.3025 125.25 26.3798C124.68 25.4571 123.848 24.726 122.859 24.2804C121.87 23.8347 120.771 23.695 119.702 23.8791C118.634 24.0633 117.645 24.5628 116.862 25.3136C116.08 26.0644 115.54 27.0321 115.311 28.0923C115.083 29.1524 115.178 30.2566 115.582 31.2628C115.986 32.269 116.682 33.1312 117.581 33.7386C118.479 34.3461 119.539 34.6709 120.623 34.6714C121.33 34.7211 122.04 34.6222 122.706 34.3812C123.373 34.1402 123.982 33.7623 124.493 33.2719C125.005 32.7815 125.409 32.1894 125.678 31.5337C125.947 30.878 126.076 30.1732 126.056 29.4646V29.458ZM136.417 29.8982C136.41 27.5463 137.1 25.245 138.402 23.2859C139.703 21.3268 141.556 19.7978 143.727 18.8926C145.898 17.9875 148.288 17.7468 150.596 18.2011C152.903 18.6554 155.024 19.7842 156.69 21.4447C158.356 23.1051 159.491 25.2224 159.953 27.5286C160.414 29.8348 160.181 32.2261 159.283 34.3997C158.385 36.5733 156.861 38.4314 154.906 39.7389C152.951 41.0463 150.652 41.7442 148.3 41.7442C146.74 41.7609 145.191 41.4667 143.745 40.8787C142.3 40.2907 140.985 39.4207 139.879 38.3195C138.773 37.2183 137.897 35.9079 137.303 34.4647C136.708 33.0215 136.407 31.4744 136.417 29.9136V29.8982ZM153.468 29.8982C153.442 28.883 153.117 27.8981 152.534 27.0666C151.951 26.2351 151.136 25.5939 150.19 25.2234C149.245 24.8529 148.211 24.7694 147.218 24.9835C146.226 25.1975 145.318 25.6996 144.609 26.4268C143.901 27.154 143.422 28.0741 143.234 29.0719C143.045 30.0698 143.155 31.101 143.55 32.0367C143.944 32.9723 144.606 33.7708 145.452 34.3322C146.299 34.8936 147.292 35.193 148.307 35.1929C149 35.2113 149.689 35.0864 150.331 34.8261C150.974 34.5657 151.555 34.1755 152.04 33.6799C152.524 33.1842 152.901 32.5939 153.147 31.9458C153.393 31.2977 153.502 30.6058 153.468 29.9136V29.8982Z" fill="white"/>
</svg>
